<svg width="26" height="26" viewBox="0 0 26 26" fill="none" xmlns="http://www.w3.org/2000/svg">
<g clip-path="url(#clip0_104_7)">
<path d="M20.8125 0.5C18.2295 0.5 16.125 2.60449 16.125 5.1875C16.125 7.77051 18.2295 9.875 20.8125 9.875C23.3955 9.875 25.5 7.77051 25.5 5.1875C25.5 2.60449 23.3955 0.5 20.8125 0.5ZM20.8125 6.75C19.9482 6.75 19.25 6.05176 19.25 5.1875C19.25 4.32324 19.9482 3.625 20.8125 3.625C21.6768 3.625 22.375 4.32324 22.375 5.1875C22.375 6.05176 21.6768 6.75 20.8125 6.75ZM13 5.96875C13 2.94629 10.5537 0.5 7.53125 0.5C4.50879 0.5 2.0625 2.94629 2.0625 5.96875V14.0986C1.10059 15.3047 0.5 16.8086 0.5 18.4688C0.5 22.3506 3.64941 25.5 7.53125 25.5C11.4131 25.5 14.5625 22.3506 14.5625 18.4688C14.5625 16.8086 13.9619 15.2998 13 14.0986V5.96875ZM7.53125 22.375C5.37793 22.375 3.625 20.6221 3.625 18.4688C3.625 17.2236 4.2207 16.0811 5.1875 15.3535V5.96875C5.1875 4.6748 6.2373 3.625 7.53125 3.625C8.8252 3.625 9.875 4.6748 9.875 5.96875V15.3535C10.8418 16.0762 11.4375 17.2236 11.4375 18.4688C11.4375 20.6221 9.68457 22.375 7.53125 22.375ZM8.3125 16.2666V15.3438C8.3125 14.9141 7.96094 14.5625 7.53125 14.5625C7.10156 14.5625 6.75 14.9141 6.75 15.3438V16.2666C5.8418 16.5889 5.1875 17.4482 5.1875 18.4688C5.1875 19.7627 6.2373 20.8125 7.53125 20.8125C8.8252 20.8125 9.875 19.7627 9.875 18.4688C9.875 17.4482 9.2207 16.5889 8.3125 16.2666Z" fill="#abb0b8"/>
</g>
<defs>
<clipPath id="clip0_104_7">
<rect width="25" height="25" fill="white" transform="translate(0.5 0.5)"/>
</clipPath>
</defs>
</svg>
