<svg width="26" height="26" viewBox="0 0 26 26" fill="none" xmlns="http://www.w3.org/2000/svg">
<g clip-path="url(#clip0_105_9)">
<path d="M8.15137 13H1.28125C0.851562 13 0.5 13.3516 0.5 13.7813V15.3438C0.5 15.7734 0.851562 16.125 1.28125 16.125H8.22461C9.00098 16.125 9.72852 16.6572 9.85547 17.4238C10.0166 18.4004 9.26465 19.25 8.3125 19.25C7.62402 19.25 7.03809 18.8008 6.82813 18.1807C6.72559 17.873 6.4082 17.6875 6.08594 17.6875H4.48437C4.00586 17.6875 3.62012 18.1172 3.70801 18.5859C4.12793 20.7393 6.03223 22.375 8.30762 22.375C11.0957 22.375 13.3223 19.9287 12.9561 17.0723C12.6582 14.709 10.5293 13 8.15137 13ZM1.28125 11.4375H17.6875C20.6025 11.4375 22.9023 8.76172 22.2676 5.73926C21.8965 3.97168 20.4658 2.54102 18.6982 2.16992C15.9932 1.60352 13.5664 3.38574 13.0879 5.85645C12.9951 6.3252 13.3857 6.75 13.8594 6.75H15.4609C15.7881 6.75 16.1006 6.56445 16.2031 6.25684C16.4131 5.63672 16.999 5.1875 17.6875 5.1875C18.6348 5.1875 19.3916 6.03711 19.2305 7.01367C19.1035 7.78027 18.3809 8.3125 17.5996 8.3125H1.28125C0.851562 8.3125 0.5 8.66406 0.5 9.09375V10.6563C0.5 11.0859 0.851562 11.4375 1.28125 11.4375ZM20.0312 13H12.3994C13.3418 13.8105 14.0205 14.8945 14.3428 16.125H20.0312C21.3252 16.125 22.375 17.1748 22.375 18.4688C22.375 19.7627 21.3252 20.8125 20.0312 20.8125C19.1572 20.8125 18.4053 20.3291 18 19.6211C17.8584 19.377 17.5752 19.25 17.292 19.25H15.6416C15.1094 19.25 14.7139 19.7773 14.8945 20.2803C15.7637 22.751 18.3369 24.4209 21.2129 23.8105C23.2246 23.3857 24.8799 21.7793 25.3486 19.7725C26.1836 16.1982 23.4736 13 20.0312 13Z" fill="#abb0b8"/>
</g>
<defs>
<clipPath id="clip0_105_9">
<rect width="25" height="25" fill="white" transform="translate(0.5 0.5)"/>
</clipPath>
</defs>
</svg>
